<svg id="Capa_1" enable-background="new 0 0 512 512" height="512" viewBox="0 0 512 512" width="512" xmlns="http://www.w3.org/2000/svg"><g><g><g><g><path d="m143.064 125.39h-44.66v-6.37c0-20.902-17.105-38.406-38.004-38.006-20.252.387-36.549 16.925-36.549 37.27 0 20.587 16.689 37.277 37.276 37.277h81.937c8.331 0 15.085-6.754 15.085-15.085 0-8.333-6.754-15.086-15.085-15.086z" fill="#e5ecf5"/></g><g><path d="m151.83 132.751h-81.937c-20.587 0-37.276-16.689-37.276-37.277 0-.412.018-.819.031-1.228-5.484 6.491-8.797 14.874-8.797 24.036 0 20.587 16.689 37.277 37.276 37.277h81.937c8.331 0 15.085-6.754 15.085-15.085 0-3.043-.909-5.871-2.459-8.241-1.234.327-2.523.518-3.86.518z" fill="#cad8eb"/></g><g><path d="m24.12 394.781c0 16.569 13.431 30 30 30s30-13.431 30-30z" fill="#61748b"/></g><g><path d="m49.397 394.781h-25.277c0 16.569 13.431 30 30 30 4.517 0 8.797-1.004 12.638-2.792-10.251-4.77-17.361-15.156-17.361-27.208z" fill="#536275"/></g><g><path d="m114.787 394.781c0 16.569 13.431 30 30 30s30-13.431 30-30z" fill="#61748b"/></g><g><path d="m140.432 394.781h-25.277c0 16.569 13.431 30 30 30 4.517 0 8.797-1.004 12.638-2.792-10.25-4.77-17.361-15.156-17.361-27.208z" fill="#536275"/></g><g><path d="m294.021 394.781c0 16.569 13.431 30 30 30s30-13.431 30-30z" fill="#61748b"/></g><g><path d="m383.638 394.781c0 16.569 13.431 30 30 30s30-13.431 30-30z" fill="#61748b"/></g><g><path d="m320.032 394.781h-25.277c0 16.569 13.431 30 30 30 4.517 0 8.797-1.004 12.638-2.792-10.251-4.77-17.361-15.156-17.361-27.208z" fill="#536275"/></g><g><path d="m409.957 394.781h-25.277c0 16.569 13.431 30 30 30 4.517 0 8.797-1.004 12.638-2.792-10.25-4.77-17.361-15.156-17.361-27.208z" fill="#536275"/></g><g><path d="m501.262 333.857c-30.458-72.274-101.255-119.266-179.685-119.266h-313.864v150.239l494.62.226c1.529-4.469 2.359-9.257 2.359-14.228-.001-5.829-1.167-11.599-3.43-16.971z" fill="#e5ecf5"/></g><g><path d="m31.091 341.453v-126.861h-23.378v150.238l494.62.226c1.529-4.469 2.359-9.257 2.359-14.228 0-3.087-.337-6.156-.981-9.16z" fill="#cad8eb"/></g><g><path d="m188.83 259.829h59.681v60.144h-59.681z" fill="#c2fef1"/></g><g><path d="m210.89 297.913v-38.084h-22.06v60.144h59.681v-22.06z" fill="#a7feeb"/></g><g><path d="m188.83 319.973h59.681v44.857h-59.681z" fill="#6e91ef"/></g><g><path d="m210.768 341.892v-21.919h-21.938v44.857h59.681v-22.938z" fill="#3d6dea"/></g><g><path d="m188.83 364.83h59.681v29.976h-59.681z" fill="#e8ab4c"/></g><g><path d="m188.83 364.83h21.447v29.976h-21.447z" fill="#e1763a"/></g><g><path d="m467.663 394.806h-218.674v-29.976h248.649c0 16.555-13.42 29.976-29.975 29.976z" fill="#e8ab4c"/></g><g><path d="m248.511 364.83h21.447v29.976h-21.447z" fill="#e1763a"/></g><g><path d="m7.713 364.83h181.117v29.976h-181.117z" fill="#e8ab4c"/></g><g><path d="m7.713 364.83h21.447v29.976h-21.447z" fill="#e1763a"/></g><g><path d="m7.713 259.829h150.814v60.144h-150.814z" fill="#c2fef1"/></g><g><path d="m31.042 297.186v-37.357h-23.329v60.144h150.814v-22.787z" fill="#a7feeb"/></g><g><path d="m446.141 259.829h-40.301c-16.201 0-26.103 17.792-17.565 31.561 11.021 17.771 30.447 28.583 51.358 28.583h55.124z" fill="#c2fef1"/></g><g><path d="m441.445 297.019c-20.912 0-40.337-10.811-51.358-28.583-.158-.255-.297-.514-.443-.771-5.066 6.436-6.314 15.752-1.369 23.726 11.021 17.771 30.447 28.583 51.358 28.583h55.124l-18.554-22.954h-34.758z" fill="#a7feeb"/></g><g><path d="m481 147.283c0-19.62-12.561-36.298-30.076-42.455.047-.843.076-1.69.076-2.545 0-24.853-20.147-45-45-45s-45 20.147-45 45c0 .854.029 1.702.076 2.545-17.515 6.157-30.076 22.835-30.076 42.455 0 11.527 4.34 22.038 11.468 30-7.128 7.962-11.468 18.473-11.468 30 0 2.581.217 5.111.635 7.574 0 0 32.626 1.078 57.347 11.752 24.72 10.674 47.018 25.674 47.018 25.674 24.853 0 45-20.147 45-45 0-11.527-4.34-22.038-11.468-30 7.128-7.962 11.468-18.473 11.468-30z" fill="#d3f850"/></g><g><path d="m447.106 233.57c-17.709-12.334-59.22-35.563-94.369-36.69 1.551-8.204 5.331-15.619 10.683-21.598-21.503-22.803-10.88-62.968 18.608-72.455-1.249-20.457 11.831-38.844 30.28-45.095-27.696-4.217-53.128 19.121-51.232 47.096-29.498 9.491-40.105 49.659-18.608 72.455-8.793 9.565-13.259 24.116-10.833 37.574 35.721-.238 77.12 18.337 104.365 37.426 20.363 0 37.558-13.529 43.11-32.086-8.158 8.254-19.482 13.373-32.004 13.373z" fill="#bde62b"/></g><g><path d="m7.713 424.781h496.979v29.936h-496.979z" fill="#61748b"/></g><g><path d="m7.713 424.781h22.628v29.936h-22.628z" fill="#536275"/></g><g><path d="m278.83 259.829h27.939c11.093 0 21.285 6.107 26.517 15.888 10.715 20.032-3.799 44.255-26.517 44.255h-27.939z" fill="#c2fef1"/></g><g><path d="m329.604 297.138h-27.939v-37.309h-22.835v60.144h27.939c15.014 0 26.438-10.582 29.37-23.54-2.087.454-4.268.705-6.535.705z" fill="#a7feeb"/></g><g><path d="m31.074 282.186h15v15h-15z" fill="#fff"/></g><g><path d="m61.074 282.186h15v15h-15z" fill="#fff"/></g><g><path d="m421.159 282.186h15v15h-15z" fill="#fff"/></g><g><path d="m46.367 110.208h15v15h-15z" fill="#fff"/></g></g></g><g><path d="m436.008 447.225h15.001v15.001h-15.001z"/><path d="m271.129 327.476h35.44c13.331 0 25.379-6.826 32.231-18.262 6.852-11.435 7.189-25.279.901-37.035-6.55-12.244-19.246-19.85-33.132-19.85h-35.44zm15-60.146h20.439c8.343 0 15.97 4.57 19.905 11.925 3.777 7.062 3.574 15.38-.542 22.249s-11.355 10.971-19.363 10.971h-20.439z"/><path d="m450.254 402.288h10.544c28.233 0 51.202-23.083 51.202-51.455-2.197-34.174-33.91-72.966-57.95-94.324 19.982-7.43 34.257-26.691 34.257-49.228 0-10.794-3.31-21.239-9.42-30.001 6.111-8.762 9.42-19.207 9.42-30.001 0-20.42-11.879-38.866-30.058-47.465-1.29-27.812-24.321-50.039-52.446-50.039s-51.155 22.227-52.446 50.039c-28.697 12.686-39.317 52.045-20.638 77.466-6.078 8.715-9.382 19.096-9.417 29.829-.351-.033-22.504-.018-22.504-.018v15.001h20.577c37.175 0 72.465 10.891 102.23 30.239h-17.963c-21.417-.755-35.866 25.214-23.939 43.015 12.478 20.119 34.061 32.131 57.735 32.131h50.501c4.734 9.186 8.734 19.48 6.455 29.953h-240.585v-105.1h-74.684v29.858h15.001v-14.858h44.683v45.145h-44.683v-15.288h-15.001v60.242h-166.124v-29.953h150.82v-75.147h-150.82v-30.239h270.798v-15h-285.799v195.198h17.163c1.129 5.539 3.483 10.638 6.766 15.001h-23.929v44.937h421.106v-15.001h-406.105v-14.936h481.999v14.936h-30.991v15.001h45.991v-44.937h-68.513c3.283-4.363 5.638-9.462 6.767-15.001zm-111.953-195.007c-.298-11.694 5.938-22.018 14.035-30.001-24.29-22.39-15.767-58.778 16.343-67.25-6.683-59.832 80.946-59.8 74.249 0 32.129 8.482 40.622 44.873 16.343 67.25 25.587 22.829 14.15 63.663-20.299 67.359-8.152-5.813-16.732-11.013-25.669-15.559v-49.636l27.654-26.152-10.307-10.899-17.347 16.405v-41.52h-15.001v104.922c-28.247-13.146-60.001-14.746-60.001-14.919zm101.137 105.195c-18.446 0-35.264-9.36-44.986-25.036-5.577-8.323 1.181-20.462 11.191-20.109h37.978c14.866 12.784 27.789 27.968 38.162 45.145zm-25.931 104.813c-9.778 0-18.115-6.271-21.211-15.001h42.422c-3.097 8.729-11.434 15.001-21.211 15.001zm-305.674-15.001c1.129 5.539 3.483 10.638 6.766 15.001h-30.709c3.283-4.363 5.637-9.461 6.766-15.001zm15.536 0h42.422c-3.096 8.729-11.433 15.001-21.211 15.001-9.777 0-18.114-6.272-21.211-15.001zm72.756-15.001v-14.857h44.683v14.857zm-14.798 15.001h105.748c1.129 5.539 3.483 10.638 6.766 15.001h-119.28c3.283-4.363 5.637-9.462 6.766-15.001zm121.284 0h42.422c-3.096 8.729-11.433 15.001-21.211 15.001-9.777 0-18.114-6.272-21.211-15.001zm57.958 0h16.191c1.129 5.539 3.483 10.638 6.766 15.001h-29.723c3.283-4.363 5.637-9.462 6.766-15.001zm129.371-29.858c-6.598 9.003-17.202 14.857-29.142 14.857h-204.989v-14.857zm-293.815-44.954h44.683v29.953h-44.683zm-45.305-60.146v45.145h-135.819v-45.145zm-135.819 105.1h166.124v14.857h-166.124zm17.698 29.858h42.421c-3.096 8.729-11.433 15.001-21.211 15.001s-18.114-6.272-21.21-15.001z"/><path d="m60.918 163.056h44.874v-15.001h-44.874c-16.006.329-30.109-13.77-29.777-29.778 1.96-39.968 58.111-39.12 59.555.736v13.871h52.161c9.971.18 9.965 14.995 0 15.172h-22.064v15.001h22.064c29.787-.787 29.774-44.393-.001-45.173h-37.175c-3.402-58.909-87.07-58.634-89.542.395-.497 24.066 20.709 45.276 44.779 44.777z"/></g></g></svg>